<svg width="373" height="44" viewBox="0 0 373 44" fill="none" xmlns="http://www.w3.org/2000/svg">
<path fill-rule="evenodd" clip-rule="evenodd" d="M358.485 16.381C358.485 18.564 360.971 19.1758 363.904 19.5912V19.5988C368.491 20.2408 372.898 21.5211 372.865 26.5668C372.831 31.6125 368.274 33.5008 363.619 33.5008C359.347 33.5008 356.066 32.1752 354.025 28.3985L356.703 26.6008C358.297 29.3275 361.073 30.2906 363.653 30.2906C366.316 30.2906 369.279 29.3918 369.279 26.5668C369.279 24.127 366.699 23.2962 363.574 22.8769C359.156 22.2651 354.948 21.1434 354.948 16.3281C354.929 11.6753 359.539 9.87755 363.556 9.87755C366.774 9.87755 369.999 10.6329 371.874 13.6542L369.163 15.4859C368.113 13.9451 365.975 13.016 363.649 12.982C360.653 12.982 358.485 14.1981 358.485 16.381ZM342.32 15.9392C340.792 14.3948 338.716 13.5276 336.551 13.5296C332.855 13.5256 329.618 16.0233 328.66 19.6179C327.702 23.2125 329.263 27.0066 332.465 28.8663C335.666 30.726 339.709 30.187 342.32 27.5525L344.754 30.0036C341.436 33.3484 336.444 34.3506 332.106 32.5428C327.768 30.735 324.939 26.4733 324.939 21.7458C324.939 17.0184 327.768 12.7567 332.106 10.9489C336.444 9.14105 341.436 10.1433 344.754 13.4881L342.32 15.9392ZM103.192 10.4988C104.921 10.4903 106.65 10.4818 108.354 10.4818C119.002 10.4818 119.032 26.0192 108.347 26.0871H101.596V30.8458C101.596 32.0284 100.644 32.9872 99.469 32.9872H98.0251V10.5158C99.732 10.5158 101.462 10.5073 103.192 10.4988ZM108.354 22.775H101.603V13.7864H108.354C114.22 13.7864 114.258 22.775 108.354 22.775ZM241.275 32.9834L251.285 10.512H255.171L265.181 32.9834H261.386L259.252 28.2663H247.171L245.067 32.9834H241.275ZM248.529 24.9843L253.247 14.2963L257.946 24.9843H248.529ZM131.652 10.4988C133.381 10.4903 135.109 10.4818 136.814 10.4818C147.462 10.4818 147.495 26.0192 136.806 26.0871H130.055V30.8458C130.055 31.4137 129.831 31.9584 129.432 32.36C129.033 32.7616 128.493 32.9872 127.929 32.9872H126.485V10.5158C128.192 10.5158 129.922 10.5073 131.652 10.4988ZM136.814 22.775H130.063V13.7864H136.814C142.68 13.7864 142.713 22.775 136.814 22.775ZM64.2397 32.9834L74.2501 10.512H78.1357L88.146 32.9834H84.3542L82.2163 28.2663H70.1357L68.0316 32.9834H64.2397ZM71.4784 24.9843L76.1966 14.2963L80.9149 24.9843H71.4784ZM227.848 12.6534V26.495L215.193 10.5083H212.448V32.9796H213.926C215.1 32.9796 216.052 32.0209 216.052 30.8382V17.125L228.707 32.9872H231.415V10.5158H229.971C228.799 10.5179 227.85 11.4737 227.848 12.6534ZM279.205 10.5423L286.567 21.0717L293.911 10.546H298.037V30.876C298.028 32.0528 297.079 33.0023 295.91 33.0023H294.466V15.7654L286.879 26.3893H286.128L278.627 15.7654V30.8722C278.627 32.0549 277.675 33.0136 276.501 33.0136H275.057V10.5423H279.205ZM310.413 12.6534V32.9834H311.827C313.002 32.9834 313.954 32.0247 313.954 30.842V10.512H312.551C311.985 10.509 311.442 10.7333 311.04 11.1352C310.639 11.5371 310.413 12.0835 310.413 12.6534ZM154.948 10.512H163.39C171.015 10.512 174.488 16.0034 174.578 21.5551C174.706 27.239 171.199 32.9834 163.39 32.9834H154.948V10.512ZM163.39 29.5164H158.485V13.9488H163.39C168.641 13.9488 170.944 17.7255 171.042 21.5249C171.143 25.4715 168.847 29.5164 163.39 29.5164ZM185.774 10.512L191.925 20.4334L198.271 10.5158H202.577V10.6744L193.714 23.772V30.8382C193.714 32.0209 192.762 32.9796 191.587 32.9796H190.143V23.7682L181.536 10.6707V10.512H185.774Z" fill="#19212B"/>
<mask id="mask0_2_62" style="mask-type:alpha" maskUnits="userSpaceOnUse" x="64" y="9" width="309" height="25">
<path fill-rule="evenodd" clip-rule="evenodd" d="M358.485 16.381C358.485 18.564 360.971 19.1758 363.904 19.5912V19.5988C368.491 20.2408 372.898 21.5211 372.865 26.5668C372.831 31.6125 368.274 33.5008 363.619 33.5008C359.347 33.5008 356.066 32.1752 354.025 28.3985L356.703 26.6008C358.297 29.3275 361.073 30.2906 363.653 30.2906C366.316 30.2906 369.279 29.3918 369.279 26.5668C369.279 24.127 366.699 23.2962 363.574 22.8769C359.156 22.2651 354.948 21.1434 354.948 16.3281C354.929 11.6753 359.539 9.87755 363.556 9.87755C366.774 9.87755 369.999 10.6329 371.874 13.6542L369.163 15.4859C368.113 13.9451 365.975 13.016 363.649 12.982C360.653 12.982 358.485 14.1981 358.485 16.381ZM342.32 15.9392C340.792 14.3948 338.716 13.5276 336.551 13.5296C332.855 13.5256 329.618 16.0233 328.66 19.6179C327.702 23.2125 329.263 27.0066 332.465 28.8663C335.666 30.726 339.709 30.187 342.32 27.5525L344.754 30.0036C341.436 33.3484 336.444 34.3506 332.106 32.5428C327.768 30.735 324.939 26.4733 324.939 21.7458C324.939 17.0184 327.768 12.7567 332.106 10.9489C336.444 9.14105 341.436 10.1433 344.754 13.4881L342.32 15.9392ZM103.192 10.4988C104.921 10.4903 106.65 10.4818 108.354 10.4818C119.002 10.4818 119.032 26.0192 108.347 26.0871H101.596V30.8458C101.596 32.0284 100.644 32.9872 99.469 32.9872H98.0251V10.5158C99.732 10.5158 101.462 10.5073 103.192 10.4988ZM108.354 22.775H101.603V13.7864H108.354C114.22 13.7864 114.258 22.775 108.354 22.775ZM241.275 32.9834L251.285 10.512H255.171L265.181 32.9834H261.386L259.252 28.2663H247.171L245.067 32.9834H241.275ZM248.529 24.9843L253.247 14.2963L257.946 24.9843H248.529ZM131.652 10.4988C133.381 10.4903 135.109 10.4818 136.814 10.4818C147.462 10.4818 147.495 26.0192 136.806 26.0871H130.055V30.8458C130.055 31.4137 129.831 31.9584 129.432 32.36C129.033 32.7616 128.493 32.9872 127.929 32.9872H126.485V10.5158C128.192 10.5158 129.922 10.5073 131.652 10.4988ZM136.814 22.775H130.063V13.7864H136.814C142.68 13.7864 142.713 22.775 136.814 22.775ZM64.2397 32.9834L74.2501 10.512H78.1357L88.146 32.9834H84.3542L82.2163 28.2663H70.1357L68.0316 32.9834H64.2397ZM71.4784 24.9843L76.1966 14.2963L80.9149 24.9843H71.4784ZM227.848 12.6534V26.495L215.193 10.5083H212.448V32.9796H213.926C215.1 32.9796 216.052 32.0209 216.052 30.8382V17.125L228.707 32.9872H231.415V10.5158H229.971C228.799 10.5179 227.85 11.4737 227.848 12.6534ZM279.205 10.5423L286.567 21.0717L293.911 10.546H298.037V30.876C298.028 32.0528 297.079 33.0023 295.91 33.0023H294.466V15.7654L286.879 26.3893H286.128L278.627 15.7654V30.8722C278.627 32.0549 277.675 33.0136 276.501 33.0136H275.057V10.5423H279.205ZM310.413 12.6534V32.9834H311.827C313.002 32.9834 313.954 32.0247 313.954 30.842V10.512H312.551C311.985 10.509 311.442 10.7333 311.04 11.1352C310.639 11.5371 310.413 12.0835 310.413 12.6534ZM154.948 10.512H163.39C171.015 10.512 174.488 16.0034 174.578 21.5551C174.706 27.239 171.199 32.9834 163.39 32.9834H154.948V10.512ZM163.39 29.5164H158.485V13.9488H163.39C168.641 13.9488 170.944 17.7255 171.042 21.5249C171.143 25.4715 168.847 29.5164 163.39 29.5164ZM185.774 10.512L191.925 20.4334L198.271 10.5158H202.577V10.6744L193.714 23.772V30.8382C193.714 32.0209 192.762 32.9796 191.587 32.9796H190.143V23.7682L181.536 10.6707V10.512H185.774Z" fill="white"/>
</mask>
<g mask="url(#mask0_2_62)">
<rect x="64.2397" y="10.2525" width="18.7486" height="18.7486" fill="#19212B"/>
</g>
<path fill-rule="evenodd" clip-rule="evenodd" d="M10.3206 0.795296C12.1376 0.349795 14.0021 0.12582 15.8732 0.128286C26.0676 0.118735 35.0743 6.74387 38.0731 16.458C41.0718 26.1721 37.3601 36.6998 28.9245 42.4068L25.5042 34.7486C30.3523 30.7149 32.1485 24.0867 29.9976 18.1676C27.8468 12.2486 22.2091 8.30548 15.8946 8.30363C15.1764 8.3032 14.4591 8.35326 13.748 8.45344L10.3206 0.795296ZM6.25639 11.7778L12.0987 24.8505C12.1238 24.9147 12.1524 24.9718 12.1953 25.0324L18.0162 38.073C17.3051 38.1735 16.5878 38.2235 15.8696 38.2228C9.5544 38.2225 3.91539 34.2799 1.76359 28.3605C-0.388212 22.4411 1.40783 15.812 6.25639 11.7778ZM36.7703 39.2358H37.1674V40.5199H37.4357V39.2358H37.8328V39.0075H36.7595V39.2358H36.7703ZM38.7917 39.9991L39.1888 39.0075H39.4678V40.5199H39.1995V39.564L38.8704 40.3808H38.7094L38.3802 39.564V40.5199H38.1119V39.0075H38.3945L38.7917 39.9991Z" fill="#19212B"/>
<mask id="mask1_2_62" style="mask-type:alpha" maskUnits="userSpaceOnUse" x="0" y="0" width="40" height="43">
<path fill-rule="evenodd" clip-rule="evenodd" d="M10.3206 0.795296C12.1376 0.349795 14.0021 0.12582 15.8732 0.128286C26.0676 0.118735 35.0743 6.74387 38.0731 16.458C41.0718 26.1721 37.3601 36.6998 28.9245 42.4068L25.5042 34.7486C30.3523 30.7149 32.1485 24.0867 29.9976 18.1676C27.8468 12.2486 22.2091 8.30548 15.8946 8.30363C15.1764 8.3032 14.4591 8.35326 13.748 8.45344L10.3206 0.795296ZM6.25639 11.7778L12.0987 24.8505C12.1238 24.9147 12.1524 24.9718 12.1953 25.0324L18.0162 38.073C17.3051 38.1735 16.5878 38.2235 15.8696 38.2228C9.5544 38.2225 3.91539 34.2799 1.76359 28.3605C-0.388212 22.4411 1.40783 15.812 6.25639 11.7778ZM36.7703 39.2358H37.1674V40.5199H37.4357V39.2358H37.8328V39.0075H36.7595V39.2358H36.7703ZM38.7917 39.9991L39.1888 39.0075H39.4678V40.5199H39.1995V39.564L38.8704 40.3808H38.7094L38.3802 39.564V40.5199H38.1119V39.0075H38.3945L38.7917 39.9991Z" fill="white"/>
</mask>
<g mask="url(#mask1_2_62)">
<rect x="0.864746" y="0.128265" width="18.7486" height="18.7486" fill="#19212B"/>
</g>
</svg>
